<mxfile host="app.diagrams.net" modified="2024-01-26T14:12:20.055Z" agent="Mozilla/5.0 (Windows NT 10.0; Win64; x64; rv:122.0) Gecko/20100101 Firefox/122.0" etag="ULiffH-m9MOz_I90fdia" version="23.0.1" type="device">
  <diagram name="Page-1" id="_BBtdlbuh8XgaFwsTtCK">
    <mxGraphModel dx="2508" dy="884" grid="1" gridSize="10" guides="1" tooltips="1" connect="1" arrows="1" fold="1" page="1" pageScale="1" pageWidth="850" pageHeight="1100" math="0" shadow="0">
      <root>
        <mxCell id="0" />
        <mxCell id="1" parent="0" />
        <mxCell id="kdnib7o-wPVwHtQ-7O7I-1" value="Penjaga Loket Pendaftaran" style="shape=umlActor;verticalLabelPosition=bottom;verticalAlign=top;html=1;outlineConnect=0;fontFamily=Poppins;fontSource=https%3A%2F%2Ffonts.googleapis.com%2Fcss%3Ffamily%3DPoppins;" parent="1" vertex="1">
          <mxGeometry x="850" y="220" width="30" height="60" as="geometry" />
        </mxCell>
        <mxCell id="kdnib7o-wPVwHtQ-7O7I-2" value="Pasien" style="shape=umlActor;verticalLabelPosition=bottom;verticalAlign=top;html=1;outlineConnect=0;fontFamily=Poppins;fontSource=https%3A%2F%2Ffonts.googleapis.com%2Fcss%3Ffamily%3DPoppins;" parent="1" vertex="1">
          <mxGeometry x="-80" y="231.56" width="30" height="60" as="geometry" />
        </mxCell>
        <mxCell id="kdnib7o-wPVwHtQ-7O7I-5" value="" style="shape=umlBoundary;whiteSpace=wrap;html=1;fontFamily=Poppins;fontSource=https%3A%2F%2Ffonts.googleapis.com%2Fcss%3Ffamily%3DPoppins;" parent="1" vertex="1">
          <mxGeometry x="280" y="210" width="100" height="80" as="geometry" />
        </mxCell>
        <mxCell id="kdnib7o-wPVwHtQ-7O7I-6" value="" style="ellipse;shape=umlControl;whiteSpace=wrap;html=1;fontFamily=Poppins;fontSource=https%3A%2F%2Ffonts.googleapis.com%2Fcss%3Ffamily%3DPoppins;" parent="1" vertex="1">
          <mxGeometry x="480" y="190" width="90" height="100" as="geometry" />
        </mxCell>
        <mxCell id="kdnib7o-wPVwHtQ-7O7I-7" value="" style="ellipse;shape=umlEntity;whiteSpace=wrap;html=1;fontFamily=Poppins;fontSource=https%3A%2F%2Ffonts.googleapis.com%2Fcss%3Ffamily%3DPoppins;" parent="1" vertex="1">
          <mxGeometry x="670" y="210" width="80" height="80" as="geometry" />
        </mxCell>
        <mxCell id="kdnib7o-wPVwHtQ-7O7I-19" value="Form Pendaftaran" style="text;html=1;strokeColor=none;fillColor=none;align=center;verticalAlign=middle;whiteSpace=wrap;rounded=0;fontFamily=Poppins;fontSource=https%3A%2F%2Ffonts.googleapis.com%2Fcss%3Ffamily%3DPoppins;" parent="1" vertex="1">
          <mxGeometry x="270" y="290" width="120" height="40" as="geometry" />
        </mxCell>
        <mxCell id="kdnib7o-wPVwHtQ-7O7I-20" value="" style="shape=umlBoundary;whiteSpace=wrap;html=1;fontFamily=Poppins;fontSource=https%3A%2F%2Ffonts.googleapis.com%2Fcss%3Ffamily%3DPoppins;" parent="1" vertex="1">
          <mxGeometry x="80" y="210" width="100" height="80" as="geometry" />
        </mxCell>
        <mxCell id="kdnib7o-wPVwHtQ-7O7I-21" value="UI Home Page" style="text;html=1;strokeColor=none;fillColor=none;align=center;verticalAlign=middle;whiteSpace=wrap;rounded=0;fontFamily=Poppins;fontSource=https%3A%2F%2Ffonts.googleapis.com%2Fcss%3Ffamily%3DPoppins;" parent="1" vertex="1">
          <mxGeometry x="70" y="290" width="120" height="40" as="geometry" />
        </mxCell>
        <mxCell id="kdnib7o-wPVwHtQ-7O7I-25" value="" style="endArrow=none;dashed=1;html=1;dashPattern=1 3;strokeWidth=2;rounded=0;exitX=0.1;exitY=-0.026;exitDx=0;exitDy=0;exitPerimeter=0;fontFamily=Poppins;fontSource=https%3A%2F%2Ffonts.googleapis.com%2Fcss%3Ffamily%3DPoppins;" parent="1" edge="1">
          <mxGeometry width="50" height="50" relative="1" as="geometry">
            <mxPoint x="-60" y="760" as="sourcePoint" />
            <mxPoint x="-60" y="341.56" as="targetPoint" />
          </mxGeometry>
        </mxCell>
        <mxCell id="kdnib7o-wPVwHtQ-7O7I-26" value="Pendaftaran" style="text;html=1;strokeColor=none;fillColor=none;align=center;verticalAlign=middle;whiteSpace=wrap;rounded=0;fontFamily=Poppins;fontSource=https%3A%2F%2Ffonts.googleapis.com%2Fcss%3Ffamily%3DPoppins;" parent="1" vertex="1">
          <mxGeometry x="465" y="290" width="120" height="40" as="geometry" />
        </mxCell>
        <mxCell id="kdnib7o-wPVwHtQ-7O7I-27" value="Pasien" style="text;html=1;strokeColor=none;fillColor=none;align=center;verticalAlign=middle;whiteSpace=wrap;rounded=0;fontFamily=Poppins;fontSource=https%3A%2F%2Ffonts.googleapis.com%2Fcss%3Ffamily%3DPoppins;" parent="1" vertex="1">
          <mxGeometry x="650" y="290" width="120" height="40" as="geometry" />
        </mxCell>
        <mxCell id="kdnib7o-wPVwHtQ-7O7I-30" value="" style="rounded=0;whiteSpace=wrap;html=1;fontFamily=Poppins;fontSource=https%3A%2F%2Ffonts.googleapis.com%2Fcss%3Ffamily%3DPoppins;" parent="1" vertex="1">
          <mxGeometry x="-70" y="382" width="20" height="208" as="geometry" />
        </mxCell>
        <mxCell id="kdnib7o-wPVwHtQ-7O7I-37" value="" style="endArrow=none;dashed=1;html=1;dashPattern=1 3;strokeWidth=2;rounded=0;exitX=0.1;exitY=-0.026;exitDx=0;exitDy=0;exitPerimeter=0;fontFamily=Poppins;fontSource=https%3A%2F%2Ffonts.googleapis.com%2Fcss%3Ffamily%3DPoppins;" parent="1" edge="1">
          <mxGeometry width="50" height="50" relative="1" as="geometry">
            <mxPoint x="129.23" y="759" as="sourcePoint" />
            <mxPoint x="129.23" y="341" as="targetPoint" />
          </mxGeometry>
        </mxCell>
        <mxCell id="kdnib7o-wPVwHtQ-7O7I-38" value="" style="endArrow=none;dashed=1;html=1;dashPattern=1 3;strokeWidth=2;rounded=0;exitX=0.1;exitY=-0.026;exitDx=0;exitDy=0;exitPerimeter=0;fontFamily=Poppins;fontSource=https%3A%2F%2Ffonts.googleapis.com%2Fcss%3Ffamily%3DPoppins;" parent="1" edge="1">
          <mxGeometry width="50" height="50" relative="1" as="geometry">
            <mxPoint x="329.23" y="760" as="sourcePoint" />
            <mxPoint x="329.23" y="342" as="targetPoint" />
          </mxGeometry>
        </mxCell>
        <mxCell id="kdnib7o-wPVwHtQ-7O7I-39" value="" style="endArrow=none;dashed=1;html=1;dashPattern=1 3;strokeWidth=2;rounded=0;exitX=0.1;exitY=-0.026;exitDx=0;exitDy=0;exitPerimeter=0;fontFamily=Poppins;fontSource=https%3A%2F%2Ffonts.googleapis.com%2Fcss%3Ffamily%3DPoppins;" parent="1" edge="1">
          <mxGeometry width="50" height="50" relative="1" as="geometry">
            <mxPoint x="524.23" y="760" as="sourcePoint" />
            <mxPoint x="524.23" y="342" as="targetPoint" />
          </mxGeometry>
        </mxCell>
        <mxCell id="kdnib7o-wPVwHtQ-7O7I-40" value="" style="endArrow=none;dashed=1;html=1;dashPattern=1 3;strokeWidth=2;rounded=0;exitX=0.1;exitY=-0.026;exitDx=0;exitDy=0;exitPerimeter=0;fontFamily=Poppins;fontSource=https%3A%2F%2Ffonts.googleapis.com%2Fcss%3Ffamily%3DPoppins;" parent="1" edge="1">
          <mxGeometry width="50" height="50" relative="1" as="geometry">
            <mxPoint x="709.23" y="760" as="sourcePoint" />
            <mxPoint x="709.23" y="342" as="targetPoint" />
          </mxGeometry>
        </mxCell>
        <mxCell id="kdnib7o-wPVwHtQ-7O7I-41" value="" style="endArrow=none;dashed=1;html=1;dashPattern=1 3;strokeWidth=2;rounded=0;exitX=0.1;exitY=-0.026;exitDx=0;exitDy=0;exitPerimeter=0;fontFamily=Poppins;fontSource=https%3A%2F%2Ffonts.googleapis.com%2Fcss%3Ffamily%3DPoppins;" parent="1" edge="1">
          <mxGeometry width="50" height="50" relative="1" as="geometry">
            <mxPoint x="864.23" y="759" as="sourcePoint" />
            <mxPoint x="864.23" y="341" as="targetPoint" />
          </mxGeometry>
        </mxCell>
        <mxCell id="UqbWEjVxIw3yu837TbqC-4" value="" style="rounded=0;whiteSpace=wrap;html=1;fontFamily=Poppins;fontSource=https%3A%2F%2Ffonts.googleapis.com%2Fcss%3Ffamily%3DPoppins;" vertex="1" parent="1">
          <mxGeometry x="120" y="382" width="20" height="38" as="geometry" />
        </mxCell>
        <mxCell id="UqbWEjVxIw3yu837TbqC-9" value="" style="endArrow=classic;html=1;rounded=0;exitX=1;exitY=0;exitDx=0;exitDy=0;entryX=0;entryY=0;entryDx=0;entryDy=0;fontFamily=Poppins;fontSource=https%3A%2F%2Ffonts.googleapis.com%2Fcss%3Ffamily%3DPoppins;" edge="1" parent="1" source="kdnib7o-wPVwHtQ-7O7I-30" target="UqbWEjVxIw3yu837TbqC-4">
          <mxGeometry width="50" height="50" relative="1" as="geometry">
            <mxPoint x="100" y="490" as="sourcePoint" />
            <mxPoint x="150" y="440" as="targetPoint" />
          </mxGeometry>
        </mxCell>
        <mxCell id="UqbWEjVxIw3yu837TbqC-10" value="pilih tipe pasien" style="text;html=1;strokeColor=none;fillColor=none;align=center;verticalAlign=middle;whiteSpace=wrap;rounded=0;fontFamily=Poppins;fontSource=https%3A%2F%2Ffonts.googleapis.com%2Fcss%3Ffamily%3DPoppins;" vertex="1" parent="1">
          <mxGeometry x="-40" y="350" width="140" height="30" as="geometry" />
        </mxCell>
        <mxCell id="UqbWEjVxIw3yu837TbqC-11" value="" style="rounded=0;whiteSpace=wrap;html=1;fontFamily=Poppins;fontSource=https%3A%2F%2Ffonts.googleapis.com%2Fcss%3Ffamily%3DPoppins;" vertex="1" parent="1">
          <mxGeometry x="320" y="392" width="20" height="118" as="geometry" />
        </mxCell>
        <mxCell id="UqbWEjVxIw3yu837TbqC-15" value="" style="endArrow=classic;html=1;rounded=0;exitX=1.011;exitY=0.326;exitDx=0;exitDy=0;entryX=0;entryY=0;entryDx=0;entryDy=0;exitPerimeter=0;fontFamily=Poppins;fontSource=https%3A%2F%2Ffonts.googleapis.com%2Fcss%3Ffamily%3DPoppins;" edge="1" parent="1" source="UqbWEjVxIw3yu837TbqC-4">
          <mxGeometry width="50" height="50" relative="1" as="geometry">
            <mxPoint x="141.33999999999992" y="391.998" as="sourcePoint" />
            <mxPoint x="320" y="392.66" as="targetPoint" />
          </mxGeometry>
        </mxCell>
        <mxCell id="UqbWEjVxIw3yu837TbqC-16" value="menampilkan" style="text;html=1;strokeColor=none;fillColor=none;align=center;verticalAlign=middle;whiteSpace=wrap;rounded=0;fontFamily=Poppins;fontSource=https%3A%2F%2Ffonts.googleapis.com%2Fcss%3Ffamily%3DPoppins;" vertex="1" parent="1">
          <mxGeometry x="170" y="362" width="140" height="30" as="geometry" />
        </mxCell>
        <mxCell id="UqbWEjVxIw3yu837TbqC-17" value="&lt;div&gt;mengisi formulir&lt;/div&gt;&lt;div&gt;pendaftaran&lt;/div&gt;" style="text;html=1;strokeColor=none;fillColor=none;align=center;verticalAlign=middle;whiteSpace=wrap;rounded=0;fontFamily=Poppins;fontSource=https%3A%2F%2Ffonts.googleapis.com%2Fcss%3Ffamily%3DPoppins;" vertex="1" parent="1">
          <mxGeometry x="-50" y="428" width="180" height="30" as="geometry" />
        </mxCell>
        <mxCell id="UqbWEjVxIw3yu837TbqC-18" value="" style="endArrow=classic;html=1;rounded=0;exitX=1;exitY=0;exitDx=0;exitDy=0;entryX=0;entryY=0.573;entryDx=0;entryDy=0;entryPerimeter=0;fontFamily=Poppins;fontSource=https%3A%2F%2Ffonts.googleapis.com%2Fcss%3Ffamily%3DPoppins;" edge="1" parent="1" target="UqbWEjVxIw3yu837TbqC-11">
          <mxGeometry width="50" height="50" relative="1" as="geometry">
            <mxPoint x="-50" y="462" as="sourcePoint" />
            <mxPoint x="120" y="462" as="targetPoint" />
          </mxGeometry>
        </mxCell>
        <mxCell id="UqbWEjVxIw3yu837TbqC-21" value="" style="rounded=0;whiteSpace=wrap;html=1;fontFamily=Poppins;fontSource=https%3A%2F%2Ffonts.googleapis.com%2Fcss%3Ffamily%3DPoppins;" vertex="1" parent="1">
          <mxGeometry x="515" y="481" width="20" height="189" as="geometry" />
        </mxCell>
        <mxCell id="UqbWEjVxIw3yu837TbqC-23" value="" style="endArrow=classic;html=1;rounded=0;exitX=1.011;exitY=0.326;exitDx=0;exitDy=0;exitPerimeter=0;entryX=0;entryY=0;entryDx=0;entryDy=0;fontFamily=Poppins;fontSource=https%3A%2F%2Ffonts.googleapis.com%2Fcss%3Ffamily%3DPoppins;" edge="1" parent="1" target="UqbWEjVxIw3yu837TbqC-21">
          <mxGeometry width="50" height="50" relative="1" as="geometry">
            <mxPoint x="340" y="482" as="sourcePoint" />
            <mxPoint x="510" y="480" as="targetPoint" />
          </mxGeometry>
        </mxCell>
        <mxCell id="UqbWEjVxIw3yu837TbqC-24" value="validasi" style="text;html=1;strokeColor=none;fillColor=none;align=center;verticalAlign=middle;whiteSpace=wrap;rounded=0;fontFamily=Poppins;fontSource=https%3A%2F%2Ffonts.googleapis.com%2Fcss%3Ffamily%3DPoppins;" vertex="1" parent="1">
          <mxGeometry x="370" y="450" width="140" height="30" as="geometry" />
        </mxCell>
        <mxCell id="UqbWEjVxIw3yu837TbqC-26" value="" style="endArrow=classic;html=1;rounded=0;exitX=-0.04;exitY=0.266;exitDx=0;exitDy=0;exitPerimeter=0;dashed=1;fontFamily=Poppins;fontSource=https%3A%2F%2Ffonts.googleapis.com%2Fcss%3Ffamily%3DPoppins;" edge="1" parent="1" source="UqbWEjVxIw3yu837TbqC-21">
          <mxGeometry width="50" height="50" relative="1" as="geometry">
            <mxPoint x="210" y="540" as="sourcePoint" />
            <mxPoint x="-50" y="528" as="targetPoint" />
          </mxGeometry>
        </mxCell>
        <mxCell id="UqbWEjVxIw3yu837TbqC-27" value="mengirim detail pendaftaran" style="text;html=1;strokeColor=none;fillColor=none;align=center;verticalAlign=middle;whiteSpace=wrap;rounded=0;fontFamily=Poppins;fontSource=https%3A%2F%2Ffonts.googleapis.com%2Fcss%3Ffamily%3DPoppins;" vertex="1" parent="1">
          <mxGeometry x="140" y="540" width="180" height="30" as="geometry" />
        </mxCell>
        <mxCell id="UqbWEjVxIw3yu837TbqC-28" value="" style="endArrow=classic;html=1;rounded=0;exitX=0;exitY=0.41;exitDx=0;exitDy=0;exitPerimeter=0;dashed=1;fontFamily=Poppins;fontSource=https%3A%2F%2Ffonts.googleapis.com%2Fcss%3Ffamily%3DPoppins;" edge="1" parent="1">
          <mxGeometry width="50" height="50" relative="1" as="geometry">
            <mxPoint x="515" y="570.71" as="sourcePoint" />
            <mxPoint x="-50" y="570.71" as="targetPoint" />
          </mxGeometry>
        </mxCell>
        <mxCell id="UqbWEjVxIw3yu837TbqC-29" value="mengirim nomor antrian" style="text;html=1;strokeColor=none;fillColor=none;align=center;verticalAlign=middle;whiteSpace=wrap;rounded=0;fontFamily=Poppins;fontSource=https%3A%2F%2Ffonts.googleapis.com%2Fcss%3Ffamily%3DPoppins;" vertex="1" parent="1">
          <mxGeometry x="150" y="500" width="160" height="30" as="geometry" />
        </mxCell>
        <mxCell id="UqbWEjVxIw3yu837TbqC-30" value="menyimpan data pasien" style="text;html=1;strokeColor=none;fillColor=none;align=center;verticalAlign=middle;whiteSpace=wrap;rounded=0;fontFamily=Poppins;fontSource=https%3A%2F%2Ffonts.googleapis.com%2Fcss%3Ffamily%3DPoppins;" vertex="1" parent="1">
          <mxGeometry x="540" y="480" width="160" height="30" as="geometry" />
        </mxCell>
        <mxCell id="UqbWEjVxIw3yu837TbqC-31" value="" style="endArrow=classic;html=1;rounded=0;exitX=1.011;exitY=0.326;exitDx=0;exitDy=0;exitPerimeter=0;entryX=0;entryY=0;entryDx=0;entryDy=0;fontFamily=Poppins;fontSource=https%3A%2F%2Ffonts.googleapis.com%2Fcss%3Ffamily%3DPoppins;" edge="1" parent="1" target="UqbWEjVxIw3yu837TbqC-32">
          <mxGeometry width="50" height="50" relative="1" as="geometry">
            <mxPoint x="535" y="512" as="sourcePoint" />
            <mxPoint x="710" y="510" as="targetPoint" />
          </mxGeometry>
        </mxCell>
        <mxCell id="UqbWEjVxIw3yu837TbqC-32" value="" style="rounded=0;whiteSpace=wrap;html=1;fontFamily=Poppins;fontSource=https%3A%2F%2Ffonts.googleapis.com%2Fcss%3Ffamily%3DPoppins;" vertex="1" parent="1">
          <mxGeometry x="700" y="512" width="20" height="38" as="geometry" />
        </mxCell>
        <mxCell id="UqbWEjVxIw3yu837TbqC-35" value="" style="rounded=0;whiteSpace=wrap;html=1;fontFamily=Poppins;fontSource=https%3A%2F%2Ffonts.googleapis.com%2Fcss%3Ffamily%3DPoppins;" vertex="1" parent="1">
          <mxGeometry x="854" y="600" width="20" height="38" as="geometry" />
        </mxCell>
        <mxCell id="UqbWEjVxIw3yu837TbqC-40" value="" style="endArrow=classic;html=1;rounded=0;exitX=0;exitY=0;exitDx=0;exitDy=0;entryX=0.983;entryY=0.633;entryDx=0;entryDy=0;entryPerimeter=0;fontFamily=Poppins;fontSource=https%3A%2F%2Ffonts.googleapis.com%2Fcss%3Ffamily%3DPoppins;" edge="1" parent="1" source="UqbWEjVxIw3yu837TbqC-35" target="UqbWEjVxIw3yu837TbqC-21">
          <mxGeometry width="50" height="50" relative="1" as="geometry">
            <mxPoint x="500" y="600" as="sourcePoint" />
            <mxPoint x="550" y="550" as="targetPoint" />
          </mxGeometry>
        </mxCell>
        <mxCell id="UqbWEjVxIw3yu837TbqC-41" value="input data registrasi ulang pasien" style="text;html=1;strokeColor=none;fillColor=none;align=center;verticalAlign=middle;whiteSpace=wrap;rounded=0;fontFamily=Poppins;fontSource=https%3A%2F%2Ffonts.googleapis.com%2Fcss%3Ffamily%3DPoppins;" vertex="1" parent="1">
          <mxGeometry x="710" y="566" width="140" height="30" as="geometry" />
        </mxCell>
        <mxCell id="UqbWEjVxIw3yu837TbqC-45" value="" style="rounded=0;whiteSpace=wrap;html=1;fontFamily=Poppins;fontSource=https%3A%2F%2Ffonts.googleapis.com%2Fcss%3Ffamily%3DPoppins;" vertex="1" parent="1">
          <mxGeometry x="700" y="658" width="20" height="38" as="geometry" />
        </mxCell>
        <mxCell id="UqbWEjVxIw3yu837TbqC-47" value="menyimpan data registrasi ulang pasien" style="text;html=1;strokeColor=none;fillColor=none;align=center;verticalAlign=middle;whiteSpace=wrap;rounded=0;fontFamily=Poppins;fontSource=https%3A%2F%2Ffonts.googleapis.com%2Fcss%3Ffamily%3DPoppins;" vertex="1" parent="1">
          <mxGeometry x="550" y="623" width="140" height="30" as="geometry" />
        </mxCell>
        <mxCell id="UqbWEjVxIw3yu837TbqC-48" value="" style="endArrow=classic;html=1;rounded=0;exitX=1.011;exitY=0.326;exitDx=0;exitDy=0;exitPerimeter=0;entryX=0;entryY=0;entryDx=0;entryDy=0;fontFamily=Poppins;fontSource=https%3A%2F%2Ffonts.googleapis.com%2Fcss%3Ffamily%3DPoppins;" edge="1" parent="1">
          <mxGeometry width="50" height="50" relative="1" as="geometry">
            <mxPoint x="535" y="659" as="sourcePoint" />
            <mxPoint x="700" y="659" as="targetPoint" />
          </mxGeometry>
        </mxCell>
      </root>
    </mxGraphModel>
  </diagram>
</mxfile>
